# generated from PmQm by Jehee Lee
:FULLY-SPECIFIED
:DEGREES
375
root 118.2241074 38.53700323 43.50081093 -59.40977544 -85.18340822 60.90501063
RightUpLeg -7.981725301 -1.910009034 -3.140237254
RightLeg 56.1963327 -4.297958333 -11.3598887
RightFoot 8.060700482 45.20590758 -17.46940905
RightToes 2.32829e-010 -1.59028e-015 9.93923e-017
Spine -7.156561866 2.192774118 -0.3495186524
Spine1 12.58159011 3.779607961 -8.859403652
HEad -10.95362685 -3.058958446 2.324656645
LeftShoulder1 9.93923e-017 0 1.22299e-017
LeftArm -6.599681884 39.93016714 -73.60455984
LeftForeArm -10.45827374 -5.325537262 -6.581468644
LeftHand 0.970123 6.82072 -4.29005
RightShoulder 1.98785e-016 -4.96962e-017 1.55301e-017
RightArm 20.68931634 -36.20283342 90.30526425
RightForeArm -43.36041459 19.73561349 -9.223474288
RightHand 1.03939 -10.2002 -2.94224
LeftUpLeg -24.15227349 -2.214194139 -0.1383831517
LeftLeg 22.23519935 0 0
LeftFoot -3.348100604 1.219674596 -4.814269627
LeftToes 8.82235e-011 9.04645e-011 1.87288e-011
376
root 116.7374407 38.80596671 43.35712451 -69.72930364 -85.65966979 71.03510337
RightUpLeg -12.22444273 -0.6008342089 -2.907001155
RightLeg 60.67877892 -3.471116301 -13.82859304
RightFoot 8.124377059 40.56636624 -13.56104493
RightToes 2.32829e-010 -1.59028e-015 9.93923e-017
Spine -6.580303668 1.426715935 -2.500291036
Spine1 12.02732856 2.53177302 -7.099113957
HEad -10.67315642 -1.707370066 1.845580681
LeftShoulder1 9.93923e-017 0 1.22299e-017
LeftArm -3.809392417 36.06141893 -75.4896582
LeftForeArm -14.22375103 -8.752497789 -5.514277912
LeftHand 0.942205 6.57551 -3.70458
RightShoulder 1.98785e-016 -4.96962e-017 1.55301e-017
RightArm 18.87628383 -39.36248856 90.13882366
RightForeArm -38.50217185 18.41094486 -4.684044826
RightHand 1.03827 -10.3208 -2.49664
LeftUpLeg -21.04450544 -1.968626876 0.9521427629
LeftLeg 22.88329584 0 0
LeftFoot -4.713652655 0.7193991958 -6.112576392
LeftToes 8.82235e-011 9.04645e-011 1.87288e-011
377
root 115.2040396 39.10022876 43.22867639 -67.09433575 -86.29822082 68.17829808
RightUpLeg -15.96767189 -0.4708670908 -2.001302102
RightLeg 61.92901505 -1.329080796 -12.55893617
RightFoot 4.501699848 35.64242036 -12.92271392
RightToes 2.32829e-010 -1.59028e-015 9.93923e-017
Spine -6.315187585 0.1881540979 -4.080899583
Spine1 11.21637537 0.7403442811 -4.786584006
HEad -9.704885422 -0.1793111848 1.644131506
LeftShoulder1 9.93923e-017 0 1.22299e-017
LeftArm 3.522023335 33.1756349 -76.94828246
LeftForeArm -23.2206879 -14.72302294 -1.994601734
LeftHand 0.92793 6.45217 -3.57146
RightShoulder 1.98785e-016 -4.96962e-017 1.55301e-017
RightArm 20.91748875 -43.21982022 89.5968458
RightForeArm -37.60342559 17.83731527 -3.186553323
RightHand 1.04716 -10.4116 -2.45404
LeftUpLeg -17.44464821 -1.565212408 2.222124942
LeftLeg 22.06708775 0 0
LeftFoot -5.784353726 -0.6621838487 -7.218122855
LeftToes 8.82235e-011 9.04645e-011 1.87288e-011
378
root 113.7046665 39.3243055 43.12921437 -61.41558008 -86.89814784 62.28613236
RightUpLeg -19.42719358 -0.5726284874 -1.024817463
RightLeg 60.66076645 0.7849378019 -9.795812484
RightFoot 1.461980103 31.03759928 -12.16929315
RightToes 2.32829e-010 -1.59028e-015 9.93923e-017
Spine -6.224798102 -1.022952818 -5.439737597
Spine1 10.74555347 -0.9501929401 -2.762801687
HEad -8.939168264 1.155813541 1.581018609
LeftShoulder1 9.93923e-017 0 1.22299e-017
LeftArm 16.56862281 30.40327029 -78.14285115
LeftForeArm -38.25626847 -20.89606089 4.907431017
LeftHand 0.925915 6.44464 -3.3863
RightShoulder 1.98785e-016 -4.96962e-017 1.55301e-017
RightArm 22.97534893 -47.46687037 88.38872627
RightForeArm -38.47724037 17.9757794 -3.561399452
RightHand 1.02044 -10.2376 -2.25741
LeftUpLeg -13.91979447 -0.8550948469 3.358881578
LeftLeg 20.84564941 0 0
LeftFoot -6.579404487 -2.341779359 -8.014325942
LeftToes 8.82235e-011 9.04645e-011 1.87288e-011
379
root 112.2255113 39.45480002 43.05610849 -61.1716923 -87.43059221 61.85393237
RightUpLeg -22.58318348 -0.6394127401 -0.261851151
RightLeg 57.33630247 2.214875302 -7.44436043
RightFoot -0.9007767875 26.58681356 -10.41425059
RightToes 2.32829e-010 -1.59028e-015 9.93923e-017
Spine -6.476834001 -1.996266867 -6.638626845
Spine1 10.81716567 -2.272585215 -1.176215133
HEad -8.783275448 2.163025137 1.510925589
LeftShoulder1 9.93923e-017 0 1.22299e-017
LeftArm 28.24911652 27.30387139 -78.72481338
LeftForeArm -50.97349422 -24.47461644 12.78925711
LeftHand 0.913312 6.34459 -3.16304
RightShoulder 1.98785e-016 -4.96962e-017 1.55301e-017
RightArm 24.95092971 -51.58391205 86.49370238
RightForeArm -40.64563351 18.51131628 -5.096103606
RightHand 0.9969 -10.0451 -2.20697
LeftUpLeg -10.47985319 0.08590305943 4.267953087
LeftLeg 19.50137871 0 0
LeftFoot -7.091999689 -3.826727355 -8.551739037
LeftToes 8.82235e-011 9.04645e-011 1.87288e-011
380
root 110.7515794 39.52211482 43.00401605 -58.67313747 -87.80903248 59.19384772
RightUpLeg -25.26846292 -1.282234991 0.3743501872
RightLeg 52.07248798 3.120978752 -5.693469446
RightFoot -2.830438246 22.38435129 -7.881352526
RightToes 2.32829e-010 -1.59028e-015 9.93923e-017
Spine -6.788023987 -2.989844041 -7.723762149
Spine1 10.93477683 -3.545371936 0.5403474714
HEad -8.843318695 2.986940174 1.472876773
LeftShoulder1 9.93923e-017 0 1.22299e-017
LeftArm 31.88723707 23.92340025 -78.45912758
LeftForeArm -53.63688285 -26.43298621 17.1456967
LeftHand 0.89027 6.12658 -3.34082
RightShoulder 1.98785e-016 -4.96962e-017 1.55301e-017
RightArm 27.40953019 -55.24304649 84.25524685
RightForeArm -43.19013309 19.08278336 -7.056815929
RightHand 1.02418 -10.1508 -2.66158
LeftUpLeg -6.937020555 0.7890013749 5.025280197
LeftLeg 17.68207241 0 0
LeftFoot -7.599670846 -5.045468906 -8.93477519
LeftToes 8.82235e-011 9.04645e-011 1.87288e-011
381
root 109.3085592 39.52645185 42.97130984 -49.76451917 -87.98127455 50.17169121
RightUpLeg -27.37085926 -2.582409832 0.9059677936
RightLeg 44.94614511 3.80913925 -4.258128327
RightFoot -3.237634216 18.6775901 -5.140370828
RightToes 2.32829e-010 -1.59028e-015 9.93923e-017
Spine -6.845519161 -4.022498645 -8.720262644
Spine1 10.81351879 -4.81636505 2.402248215
HEad -8.700458735 3.742787612 1.490087455
LeftShoulder1 9.93923e-017 0 1.22299e-017
LeftArm 30.01286693 20.50987836 -77.73300493
LeftForeArm -49.90317989 -28.37589464 18.07386607
LeftHand 0.874162 5.96507 -3.53657
RightShoulder 1.98785e-016 -4.96962e-017 1.55301e-017
RightArm 28.9357223 -58.30468862 81.8964138
RightForeArm -44.13277519 19.34946355 -8.402974779
RightHand 1.06596 -10.3388 -3.23031
LeftUpLeg -3.578541668 0.8931179892 5.585696187
LeftLeg 15.83268321 0 0
LeftFoot -8.468280093 -5.657450464 -9.114371254
LeftToes 8.82235e-011 9.04645e-011 1.87288e-011
382
root 107.8909597 39.4131 42.9570829 -48.35830649 -88.05736396 48.75764466
RightUpLeg -28.8182877 -3.657432414 1.23231656
RightLeg 36.18133291 4.17189153 -3.236014126
RightFoot -2.129863322 15.24670935 -2.417568455
RightToes 2.32829e-010 -1.59028e-015 9.93923e-017
Spine -6.99225 -4.80394 -9.49489
Spine1 10.8103 -5.72047 3.70045
HEad -8.50494 4.3499 1.50706
LeftShoulder1 9.93923e-017 0 1.22299e-017
LeftArm 29.324 17.2202 -77.0933
LeftForeArm -48.1612 -29.8036 18.6995
LeftHand 0.872868 5.99207 -3.07255
RightShoulder 1.98785e-016 -4.96962e-017 1.55301e-017
RightArm 28.776 -60.6454 79.5323
RightForeArm -43.3166 19.3197 -8.73957
RightHand 1.06334 -10.2749 -3.3763
LeftUpLeg -0.9223415154 0.4664560564 5.825897092
LeftLeg 15.20905605 0 0
LeftFoot -9.982507754 -5.291270385 -8.780935213
LeftToes 8.82235e-011 9.04645e-011 1.87288e-011
